<?xml version="1.0" encoding="utf-8"?>
<!DOCTYPE svg  PUBLIC '-//W3C//DTD SVG 1.1//EN'  'http://www.w3.org/Graphics/SVG/1.1/DTD/svg11.dtd'>
<svg version="1.1" xmlns="http://www.w3.org/2000/svg" 
                   xmlns:xlink="http://www.w3.org/1999/xlink"
                   viewBox="150 150 205 205"
                   enable-background="new 0 0 500 500"
                   xml:space="preserve" >
<g>
<path d="M336,243.734v-27.498c0-8.194-7.594-14.236-15.788-14.236h-41.926c-8.194,0-14.286,6.042-14.286,14.236v2.442v25.056     c-13,9.463-21.522,23.783-23.56,40.167c0.006,0.024-0.181,0.049-0.174,0.073c-0.313,2.408-0.577,4.858-0.577,7.346     c0,32.888,26.666,59.548,59.554,59.548s60.027-26.661,60.027-59.548C359.27,271.871,350,254.601,336,243.734z M299.249,216.623     c4.482,0,8.115,3.633,8.115,8.115s-3.633,8.115-8.115,8.115c-4.482,0-8.115-3.633-8.115-8.115S294.767,216.623,299.249,216.623z      M322.443,314.515c-6.195,6.195-14.433,9.607-23.194,9.607c-8.762,0-16.999-3.412-23.195-9.607     c-4.178-4.178-7.084-9.287-8.538-14.858c-0.337-1.292-0.592-2.609-0.772-3.944c-0.018-0.135-0.033-0.27-0.05-0.405     c-0.062-0.512-0.111-1.026-0.149-1.543c-0.012-0.166-0.027-0.331-0.036-0.497c-0.038-0.646-0.063-1.295-0.063-1.948     c0-0.617,0.021-1.23,0.055-1.84c0.009-0.156,0.024-0.311,0.034-0.467c0.033-0.471,0.073-0.94,0.126-1.407     c0.017-0.149,0.036-0.297,0.055-0.445c0.063-0.498,0.136-0.993,0.221-1.485c0.018-0.102,0.034-0.203,0.053-0.305     c0.109-0.593,0.23-1.183,0.37-1.768c1.395-5.812,4.361-11.146,8.694-15.479c6.195-6.195,14.433-9.607,23.195-9.607     c8.762,0,16.999,3.412,23.194,9.607c6.195,6.195,9.607,14.433,9.607,23.194C332.051,300.082,328.639,308.32,322.443,314.515z"/>
<path d="M232.494,314.532c-3.505,3.787-7.881,6.715-12.871,8.525c-8.237,2.988-17.144,2.589-25.08-1.123     c-7.937-3.712-13.953-10.292-16.94-18.529c-2.988-8.237-2.589-17.144,1.123-25.08c3.712-7.937,10.292-13.953,18.529-16.94     c8.237-2.988,17.144-2.589,25.08,1.123c3.701,1.731,6.977,4.092,9.731,6.947c1.136-3.505,2.858-6.926,4.529-10.201     c3.99-7.823,10.407-14.917,16.407-20.775v-22.243c0-0.91-0.291-1.81-0.199-2.696l-25.09-11.654     c-7.422-3.471-16.338-0.268-19.81,7.154l-11.691,24.909c-17.668,3.734-33.453,15.427-41.693,33.046     c-13.932,29.791-1.086,65.235,28.705,79.167c21.504,10.056,45.944,6.15,63.122-8.002c-5.1-5.749-9.206-12.227-12.209-19.325     C233.536,317.416,232.997,315.978,232.494,314.532z M235.318,220.519c4.482,0,8.115,3.633,8.115,8.115     c0,4.482-3.633,8.115-8.115,8.115c-4.482,0-8.115-3.633-8.115-8.115C227.203,224.152,230.836,220.519,235.318,220.519z"/>
<path d="M247.924,205.046c11.249,0,20.4-9.152,20.4-20.4c0-0.272-0.03-0.537-0.041-0.807c0.984,0.147,1.984,0.247,3.008,0.247     c3.068,0,5.969-0.7,8.582-1.919c2.678,8.146,10.345,14.049,19.375,14.049c11.249,0,20.4-9.152,20.4-20.4     c0-11.249-9.152-20.4-20.4-20.4c-3.068,0-5.969,0.7-8.582,1.919c-2.678-8.146-10.345-14.049-19.375-14.049     c-11.249,0-20.4,9.152-20.4,20.4c0,0.272,0.03,0.537,0.041,0.807c-0.984-0.147-1.984-0.247-3.008-0.247     c-11.249,0-20.4,9.152-20.4,20.4S236.675,205.046,247.924,205.046z M299.249,166.542c5.121,0,9.273,4.152,9.273,9.273     c0,5.121-4.152,9.273-9.273,9.273c-5.121,0-9.273-4.152-9.273-9.273C289.976,170.694,294.127,166.542,299.249,166.542z      M271.292,154.412c5.121,0,9.273,4.152,9.273,9.273s-4.152,9.273-9.273,9.273c-5.121,0-9.273-4.152-9.273-9.273     S266.171,154.412,271.292,154.412z M247.924,175.373c5.121,0,9.273,4.152,9.273,9.273c0,5.121-4.152,9.273-9.273,9.273     c-5.121,0-9.273-4.152-9.273-9.273C238.651,179.524,242.803,175.373,247.924,175.373z"/>
</g>
</svg>
