<svg width="300" height="300" xmlns="http://www.w3.org/2000/svg" viewBox="0 0 500 500">
 <g>
  <path stroke="null" id="svg_3" d="m119.50979,83.874543c8.692488,6.837944 20.464255,10.594774 24.553434,22.034191c2.574328,-0.782214 2.03449,-4.680429 5.036649,-5.036649c0.997047,3.652167 -0.965832,5.506712 0,8.183866c3.277586,-0.710603 4.597801,-3.37674 7.555891,-4.406838c1.109054,1.601151 1.614005,3.070097 0,4.406838c2.673482,0.3654 2.91953,-1.696633 3.777028,-3.147217c2.276866,1.318379 3.387757,1.318379 5.664623,0c0.490261,0.560036 0.677551,1.421205 0.629811,2.519243c2.888315,-1.0099 4.276469,-0.045905 7.554055,0c4.544552,-3.218828 3.61728,-11.911316 8.813676,-14.480136c11.896627,5.312076 17.142601,17.27297 20.77457,30.847868c7.146423,6.074092 10.523162,15.916031 17.627353,22.034191c-1.501997,3.699908 1.779261,6.663507 3.777028,8.813676c2.790998,21.988287 20.131906,34.836056 47.217435,34.624895c2.95809,3.710925 5.581995,4.854867 12.588868,5.666459c13.327013,1.542393 31.306913,4.739187 47.217435,3.147217c14.930001,-1.492816 26.34922,-8.703505 32.735463,-16.369568c1.983077,0.304806 1.424878,-1.931664 3.778864,-1.259621c12.94876,-14.12208 15.888488,-38.253192 40.921165,-40.291355c2.658792,5.558125 2.669809,15.455149 -1.889432,18.886974c1.615841,0.903402 3.341852,1.69296 3.778864,3.777028c-3.681546,5.341455 -5.214759,12.83308 -10.703108,16.369568c0.286444,2.651448 2.978288,2.897496 3.778864,5.036649c-0.486588,5.179871 -4.529862,6.803057 -4.406838,12.590704c-1.052133,0.835463 -2.107938,1.66909 -4.405002,1.259621c-0.616957,3.343689 3.130691,2.324607 4.405002,3.777028c-7.078484,6.140195 -12.629264,13.809929 -13.850325,25.811219c3.088459,5.936378 8.013101,10.032902 10.703108,16.367732c-1.924319,0.455373 -2.295228,-0.6445 -3.778864,-0.629811c1.230242,3.901888 2.32828,4.028585 2.519243,8.813676c-1.017245,0.17811 -1.085184,-0.594923 -1.889432,-0.629811c2.095084,9.834594 10.811443,15.126472 16.369568,22.664002c2.690008,3.648495 2.662465,8.218753 5.034813,13.850325c1.652564,3.923922 6.795712,7.43654 4.406838,11.96273c-2.43845,0.339694 -2.59269,-1.604824 -4.406838,-1.889432c-1.533212,0.971341 -0.200144,4.349917 0.629811,5.036649c0.269919,1.738865 -2.344805,0.591251 -2.517406,1.887596c2.333788,9.733604 5.697675,15.987642 7.554055,25.813055c-1.04846,0 -2.098757,0 -3.147217,0c1.900449,2.456812 5.301059,7.396143 2.517406,10.701272c-3.824768,-1.00072 -2.787325,-6.865487 -6.924245,-7.554055c-0.571053,2.475174 2.179549,7.043596 2.517406,10.703108c-1.281655,1.098037 -1.233915,-0.470063 -2.517406,0.629811c0.552691,1.112727 1.99593,1.838019 0.629811,3.147217c-2.666137,0.148731 -3.19863,-1.836183 -5.034813,-2.517406c-0.367237,4.774075 3.294112,5.517729 2.517406,10.701272c-1.922483,0.389271 -4.671249,0.844644 -6.924245,-0.629811c-1.878415,1.718667 2.302573,2.699188 1.259621,5.666459c-5.835388,1.090692 -6.681868,7.168457 -10.071462,10.703108c-14.079848,0.437011 -27.781443,0.497605 -32.737299,-8.185702c-0.238704,-5.570978 5.343291,-8.385846 2.519243,-14.480136c-2.533932,-0.433339 -1.547902,2.651448 -3.778864,2.519243c-0.528821,-0.730801 -0.829955,-1.687452 -0.629811,-3.149053c-1.384482,-1.648892 -2.091412,1.951862 -3.778864,0c0,-2.308082 0,-4.616163 0,-6.924245c-1.962879,0.345202 -0.963996,3.652167 -1.887596,5.036649c-2.47701,-2.768963 -5.216595,-5.275353 -6.29627,-9.443487c-2.15017,-0.473735 -0.800576,2.557802 -3.147217,1.887596c-0.495769,-2.442123 -1.950026,-3.925758 -1.887596,-6.924245c-2.089576,4.417855 -3.099476,9.911714 -3.149053,16.367732c-2.88097,4.898935 -9.085431,1.180665 -13.850325,1.889432c-5.875784,0.875859 -11.891118,6.740626 -17.627353,1.887596c-0.493933,-0.41865 0.143222,-2.346641 -0.629811,-2.517406c-1.094365,1.634203 -4.180988,1.274311 -6.924245,1.259621c-5.664623,-5.765613 5.756432,-12.08759 0,-17.629189c-1.876579,1.900449 -2.107938,5.446118 -3.778864,7.554055c-2.036326,-0.269919 -5.444281,0.828118 -5.666459,-1.259621c-2.177713,0.76018 -2.014292,3.863328 -3.147217,5.666459c-2.091412,-1.661745 -4.228729,0.851989 -6.924245,-1.887596c-1.307362,0.161584 -0.172601,2.765291 -1.259621,3.147217c-3.319818,0.170765 -3.507109,-2.789161 -6.29627,-3.147217c-1.916975,4.465596 -6.32014,-0.492097 -8.813676,-1.259621c-0.826282,0.222178 -0.989702,1.109054 -1.887596,1.259621c2.432942,2.454976 -0.113843,6.259546 -1.261457,8.813676c-2.410908,-0.734473 -2.787325,-3.507109 -5.034813,-4.406838c0.321332,3.470385 -0.045905,6.250366 -1.889432,7.554055c-1.395499,0.347039 -0.894221,-1.200863 -1.887596,-1.259621c-1.446912,3.444679 -4.008387,8.198555 -8.813676,6.29627c3.272077,10.591101 -8.64842,14.252449 -6.924245,23.293812c-4.676757,5.42592 -7.214361,10.956502 -18.886974,10.073298c-10.906925,-0.826282 -31.672314,-0.005509 -25.181408,-13.850325c1.49098,-3.180268 10.363415,-9.452668 4.406838,-16.369568c-6.23384,6.355028 -18.101088,8.396863 -28.330461,5.036649c-5.492022,-1.803131 -8.475819,-7.438376 -13.220515,-4.405002c-1.939009,-6.428475 2.899332,-11.310885 5.664623,-15.109947c13.481253,2.724895 12.021487,-17.867893 8.813676,-27.698814c-1.803131,0.084464 0.54351,4.322374 -1.259621,4.405002c-3.464877,-1.14945 -2.420089,-6.814074 -4.406838,-9.443487c-1.665418,0.224014 -0.569217,3.207811 -1.887596,3.778864c-5.413066,-0.804248 0.130369,-9.019329 -1.889432,-11.96273c-2.620233,0.736309 -2.614724,4.09836 -5.664623,4.406838c-0.681224,-5.088062 1.683779,-7.131733 2.517406,-10.703108c-2.906677,0.031215 -2.28972,3.586065 -5.664623,3.149053c0.600432,-3.598918 2.410908,-5.982283 2.517406,-10.073298c-2.036326,-0.778541 -0.48108,2.036326 -2.517406,1.259621c-1.737029,-1.300017 -1.191683,-3.5016 0,-5.034813c-2.579837,-3.297784 -5.117441,-6.634128 -9.443487,-8.183866c-0.30297,-5.130294 1.869234,-7.783578 3.147217,-11.332919c-1.008064,-2.025309 -2.35215,2.214436 -3.777028,0c-2.146497,-11.20255 5.644425,-17.834842 8.183866,-26.441029c-5.181707,-4.568422 0.782214,-17.845859 -6.924245,-22.034191c-1.983077,-0.304806 -1.424878,1.931664 -3.777028,1.259621c-2.203419,-2.623905 -6.43582,-3.215156 -8.813676,-5.664623c1.061314,3.777028 -0.036724,5.875784 -1.889432,8.183866c-2.513734,-0.003672 -1.206372,-3.830277 -2.517406,-5.036649c-0.976849,1.542393 -0.940125,4.096523 -1.259621,6.29627c-2.734076,0.635319 -2.805687,-1.38999 -3.777028,-2.519243c-0.853825,0.194635 -0.521476,1.577281 -0.629811,2.519243c-2.23647,-0.071611 -2.533932,-2.084067 -2.519243,-4.406838c-1.937173,-0.440684 -1.210044,-0.440684 -3.147217,0c-2.612888,-6.619438 -11.149301,-7.317188 -13.220515,-14.480136c-2.970943,-0.242376 -1.195355,4.259944 -4.406838,3.777028c-1.60666,-3.850475 -2.054688,-8.857745 -4.406838,-11.960893c-0.629811,-17.418028 8.396863,-25.177736 15.739757,-34.624895c0.053249,-0.892385 0.104662,-1.782933 -0.629811,-1.887596c0.459046,-1.430386 1.893104,-1.882087 3.147217,-2.519243c-0.392943,-1.494653 -3.874345,0.097318 -4.406838,-1.259621c0.809757,-2.548621 3.248207,-3.468549 3.777028,-6.29627c-1.703977,-1.661745 -3.251879,2.17404 -6.294434,1.259621c-0.521476,-1.779261 0.886876,-1.63053 0.629811,-3.147217c-2.339297,-0.24054 -1.64522,2.550458 -4.406838,1.887596c-1.860053,-4.610654 2.392546,-6.239348 3.778864,-9.443487c-2.75611,-2.666137 0.538002,-4.239746 1.887596,-6.29627c0.106499,-1.36612 -2.232798,-0.284608 -3.147217,-0.629811c1.569936,-3.255552 2.998486,-6.654326 6.924245,-7.554055c-0.352547,-0.907074 -0.982358,-1.536885 -1.887596,-1.889432c-0.304806,-1.983077 2.886479,-0.471899 3.147217,-1.887596c-0.392943,-1.494653 -3.874345,0.097318 -4.406838,-1.259621c2.484355,-2.761619 6.149376,-4.344408 9.443487,-6.29627c-0.269919,-0.987866 -1.981241,-0.538002 -1.259621,-2.517406c1.413861,-0.896057 4.147936,-0.468227 4.406838,-2.519243c-4.955857,-7.047269 -6.332994,-22.976153 -1.263294,-32.105653z" clip-rule="evenodd" fill-rule="evenodd"/>
  <text stroke="#000" transform="matrix(1.439550071499731,0,0,1.4659491392231045,-101.21636683829436,-109.26763438227083) " xml:space="preserve" text-anchor="start" font-family="Helvetica, Arial, sans-serif" font-size="24" id="svg_7" y="243.423523" x="215.919922" stroke-width="0" fill="#f7f2f2">No Photo</text>
  <text stroke="#000" transform="matrix(1.5259426832199097,0,0,1.5259426832199097,-113.86659091711044,-147.2639513015747) " xml:space="preserve" text-anchor="start" font-family="Helvetica, Arial, sans-serif" font-size="24" id="svg_10" y="282.363991" x="211.257339" stroke-width="0" fill="#f7f2f2">Available</text>
 </g>
</svg>
