<svg version="1.1" id="logo" style="fill: #1757b8;" xmlns="http://www.w3.org/2000/svg" xmlns:xlink="http://www.w3.org/1999/xlink" x="0px" y="0px" viewBox="0 0 260.2 260.2" enable-background="new 0 0 260.2 260.2" xml:space="preserve">
                <title>Buckeystown Veterinary Hospital</title>
                <g>
                  <path d="M0,130.1C0,58.2,58.3,0,130.2,0c71.8,0,130,58.3,130,130.3c0,71.8-58.4,129.9-130.4,129.9C58.2,260.1,0,201.8,0,130.1z
                     M97.9,67.2c-3.2-0.7-6.6,0.6-9.9,2.6c-4.4,2.7-9,5.3-12.8,8.7c-2.1,1.9-4.2,4-6.1,6.1c-2.7,3.1-3.5,6.7-2.2,10.6
                    c0.5,1.4,1.1,2.8,1.4,4.2c0.5,1.7,0.9,3.4,1,5.1c0.1,2.4-0.9,3.8-3.2,4.6c-0.9,0.3-1.7,0.6-2.6,0.8c-2.6,0.6-4.6,1.9-6.5,3.8
                    c-1.9,1.9-4,3.5-6,5.3c-1.6,1.4-3.4,2.8-4.9,4.4c-3.8,4.4-6.9,9.4-9.3,14.8c-2.2,4.8-4.4,9.6-6.5,14.5c-2.5,6-4.9,12-7.4,18.1
                    c-0.8,1.9-1.5,3.8-2.1,5.7c-0.2,0.5-0.2,1.3,0,1.8c0.3,0.8,0.9,1.4,1.4,2.1c1.5,1.9,2.2,1.9,3.8,0.1c1.3-1.5,1.9-3.3,2.2-5.2
                    c1.3-6.2,4.3-11.6,8.4-16.4c1.6-1.8,3.5-3.4,5.4-4.9c1.4-1.1,3.1-1.8,5-1.8c2.6,0,4.5-1.1,6-3.1c1.3-1.7,2.5-3.3,3.8-4.9
                    c2.9-3.5,5.3-4.1,9.5-2.5c0.4,0.1,0.7,0.3,1.1,0.5c1.2,0.5,1.6,1.2,1.2,2.5c-0.3,0.9-0.8,1.8-1.2,2.7c-0.9,2.3-0.8,3.5,1,4.3
                    c1,0.5,2,0.9,2.8,1.5c2.9,2.2,4.6,5.2,4.7,8.9c0,0.9,0.3,1.3,1,1.7c2.9,1.6,5.4,3.5,7.4,6.1c1.7,2.2,2.1,4.6,1,7.1
                    c-0.7,1.7-1.6,3.4-2.8,4.8c-2.5,3-5.7,4.7-9.7,4.8c-2.7,0.1-5.4,0.4-8.1,0.9c-1.7,0.3-2.7,1.7-2.8,3.5c-0.1,1.7,0.6,3.1,2.2,3.8
                    c1.2,0.6,2.5,1.1,3.8,1.4c4,1,6.5,3.6,7.8,7.4c0.7,2.1,1.4,4.3,2.2,6.3c0.2,0.4,0.8,1,1.2,1c1.8,0.1,3.7,0.1,5.5,0.1
                    c1.1,0,1.5-0.6,1.8-1.5c1.1-4,0.3-7.9-1.2-11.6c-0.8-2-0.7-4,0.2-5.9c0.6-1.3,1.2-2.5,2-3.7c2.3-3.4,3.6-7.1,3.5-11.2
                    c0-3.1,1.8-4.7,4.9-4.7c1.9,0,3.8,0.2,5.7,0.3c2.7,0.2,5.4,0,7.6-1.5c2.7-1.9,5.6-2.3,8.8-1.8c0.4,0.1,0.9,0.1,1.3,0.1
                    c1.4,0,2.7-0.3,3.5-1.5c0.9-1.2,1.9-2.4,2.4-3.7c1-2.7,1.7-5.5,2.4-8.3c0.2-0.8,0.4-1.4,1.4-1.6c1.6-0.4,2.2-1.6,2.4-3.7
                    c0.1-1.4-0.4-2.1-1.9-2.8c-2.9-1.4-5.9-2.9-8.8-4.4c-5.7-2.9-11.1-6.4-15.2-11.4c-1.4-1.7-2.8-3.4-1.7-5.9c0.3-0.7,0.1-1.8-0.2-2.7
                    c-0.6-1.8-1.9-3.1-3.6-3.9c-2.6-1.3-5.3-2.4-7.9-3.7c-3.7-1.9-7.4-3.8-11.1-5.7c-0.9-0.4-1-0.9-0.4-1.7c4.9-6.7,9.7-13.3,14.5-20
                    c1.8-2.5,3.6-4.9,5.3-7.4c1.6-2.5,3.5-4.5,6-6.1c1.2-0.8,2.4-1.6,3.4-2.6c0.5-0.5,0.9-1.3,1.1-2c0.5-2,0.7-4,1.2-6
                    c1.3-5.4,4.5-9.4,9-12.6c0.4-0.3,0.9-0.6,1.4-0.7c0.8-0.2,1.4,0.4,1.2,1.2c-0.1,0.5-0.4,1-0.6,1.4c-0.4,1.1-0.8,2.2-1.1,3.4
                    c-0.5,2.5,0.5,4.9,1.1,7.3c0.1,0.5,0.6,0.9,0.9,1.3c0.4-0.4,1.1-0.7,1.3-1.2c1-2.4,1.9-4.9,2.8-7.4c0.3-0.7,0.5-1.5,0.8-2.1
                    c0.2-0.3,0.7-0.6,1-0.6c0.3,0,0.8,0.4,0.9,0.7c0.9,2.9,2,5.8,1.5,9c-0.2,1.7-0.6,3.3-0.8,5c-0.6,4.8-1.5,4.1,3.3,7.4
                    c2.9,2.1,6.3,3.6,9.5,5.3c1.6,0.9,3.4,1.5,4.9,2.6c3.4,2.5,6.3,5.5,8.8,8.9c1,1.3,2.2,2.6,3.5,3.6c4.1,3,7.9,6.4,11.4,10.1
                    c2.4,2.5,5.1,4.3,8.2,5.7c1.9,0.8,3.7,1.7,5.5,2.7c1.9,1.1,2.7,2.7,2.3,5c-0.3,1.5-0.3,3-0.6,4.5c-0.4,1.7-0.6,3.6-1.6,4.9
                    c-2.1,2.8-4.7,5.2-8.5,5.9c-3.5,0.6-6.7,0.6-9.9-1.4c-2.9-1.9-6-3.4-8.9-5.2c-1.5-1-3.1-0.9-4.7-0.7c-2.1,0.3-4.1,0.1-6.1-0.9
                    c-2.5-1.2-5.1-2.4-7.5-3.7c-2.1-1.1-2.2-1.4-4.2,0.7c-2.9,3-5.4,6.2-7,10.1c-0.9,2-1.1,3.9,0.1,5.9c0.9,1.5,1.8,3.1,2.7,4.7
                    c0.8,1.4,2.2,2.2,3.8,2.5c1.9,0.5,3.7-0.1,5.5-0.9c3.5-1.6,7.1-1.9,10.8-1.6c3.3,0.2,6.8,0.9,10,0.4c3.1-0.4,4.8,0.8,6.4,3
                    c0.6,0.8,1.3,1.6,2,2.4c1.5,1.7,2.8,3.6,4.4,5.2c3.3,3.4,7.1,5.5,12.1,4.4c4.3-1,8.4-2.5,11.7-5.7c1.6-1.5,3.1-3.1,5-4.3
                    c4.1-2.5,6.4-6.2,8.6-10.2c1-1.9,0.7-3.6-0.7-5c-1.2-1.2-2.5-2.3-3.7-3.6c-0.7-0.8-1.5-1.7-1.8-2.7c-1.2-3.4-2.3-6.9-3.4-10.3
                    c-1.3-3.8-2.9-7.4-4-11.3c-0.9-3.2-2.3-6-3.9-8.8c-0.5-0.9-1-1.9-1.3-3c-0.2-1.1-0.1-2.2,0-3.3c0-0.3,0.7-0.8,1.1-0.8
                    c1.6-0.3,2.9,0.5,4.1,1.5c2.5,2,5.2,2.1,8.1,1.1c2.7-1,5.5-2,8.3-2.9c1.7-0.5,3.3-1.3,4.3-2.9c2.1-3.2,4.1-6.4,6.1-9.6
                    c0.4-0.6,0.6-1.2,0.7-1.9c0.6-4.2,0.3-8.1-3.1-11.1c-1.4-1.2-2.6-2.7-4.1-3.8c-1-0.8-2.3-1.4-3.5-1.6c-7.1-1-14.2-0.9-21.2,0.9
                    c-2.1,0.5-4.3,0.9-6.5,1.2c-2.2,0.3-4.1-0.5-5.4-2.2c-1.5-2.1-3-4.2-4.2-6.5c-1.9-3.7-3.2-7.7-5.7-11.1c-1.6-2.2-2.7-4.7-4.2-6.9
                    c-0.5-0.8-1.4-1.6-2.3-1.9c-2.3-0.7-4.6-1.3-7-1.7c-4-0.7-7.4,0.3-9.7,3.8c-0.6,1-1.3,2-2.1,2.7c-1.3,1.2-2.6,2.5-4.2,3.1
                    c-3.8,1.4-7.1,3.4-10.3,5.9c-0.8,0.6-1.6,1.2-2.5,1.6c-1.9,0.9-3.7,0.5-4.8-1.3c-0.6-0.9-0.9-2-1.4-3c-0.5-1.1-0.9-2.3-1.6-3.2
                    c-0.5-0.6-1.3-1.2-2.1-1.4c-5-1.3-9.9-0.9-14.8,0.4c-1.8,0.5-2.7,1.6-2.8,3.4c-0.1,1.6,0,3.3,0,4.9c0,4.3,0.7,8.4,2.8,12.2
                    c1.8,3.2,0.1,6-3.6,6.4C101.6,67.3,100.1,67.2,97.9,67.2z"/>
                  <path fill="#FFFFFF" d="M97.9,67.2c2.2,0,3.7,0.1,5.1,0c3.7-0.3,5.4-3.2,3.6-6.4c-2.2-3.8-2.8-7.9-2.8-12.2c0-1.6-0.1-3.3,0-4.9
                    c0.1-1.8,1-2.9,2.8-3.4c4.9-1.3,9.8-1.7,14.8-0.4c0.8,0.2,1.6,0.8,2.1,1.4c0.7,0.9,1.1,2.1,1.6,3.2c0.5,1,0.8,2.1,1.4,3
                    c1.1,1.8,2.9,2.3,4.8,1.3c0.9-0.4,1.7-1,2.5-1.6c3.2-2.4,6.5-4.4,10.3-5.9c1.6-0.6,2.9-1.9,4.2-3.1c0.8-0.8,1.5-1.8,2.1-2.7
                    c2.4-3.5,5.8-4.5,9.7-3.8c2.4,0.4,4.7,1,7,1.7c0.9,0.3,1.8,1.1,2.3,1.9c1.5,2.3,2.6,4.8,4.2,6.9c2.5,3.4,3.8,7.4,5.7,11.1
                    c1.2,2.3,2.7,4.4,4.2,6.5c1.3,1.8,3.2,2.6,5.4,2.2c2.2-0.3,4.3-0.7,6.5-1.2c7-1.7,14.1-1.8,21.2-0.9c1.2,0.2,2.5,0.8,3.5,1.6
                    c1.5,1.1,2.7,2.6,4.1,3.8c3.4,3,3.7,6.9,3.1,11.1c-0.1,0.7-0.4,1.3-0.7,1.9c-2,3.2-4.1,6.4-6.1,9.6c-1,1.6-2.5,2.3-4.3,2.9
                    c-2.8,0.9-5.5,1.8-8.3,2.9c-2.9,1.1-5.6,0.9-8.1-1.1c-1.2-0.9-2.5-1.7-4.1-1.5c-0.4,0.1-1,0.5-1.1,0.8c-0.1,1.1-0.2,2.2,0,3.3
                    c0.2,1,0.7,2,1.3,3c1.6,2.8,3,5.7,3.9,8.8c1.1,3.8,2.7,7.5,4,11.3c1.2,3.4,2.2,6.9,3.4,10.3c0.4,1,1.1,1.9,1.8,2.7
                    c1.2,1.3,2.5,2.4,3.7,3.6c1.4,1.5,1.8,3.2,0.7,5c-2.2,4-4.6,7.7-8.6,10.2c-1.8,1.1-3.4,2.8-5,4.3c-3.3,3.2-7.4,4.6-11.7,5.7
                    c-5,1.2-8.8-1-12.1-4.4c-1.6-1.6-3-3.5-4.4-5.2c-0.7-0.8-1.3-1.6-2-2.4c-1.6-2.2-3.3-3.5-6.4-3c-3.3,0.5-6.7-0.2-10-0.4
                    c-3.7-0.3-7.3,0.1-10.8,1.6c-1.7,0.8-3.5,1.4-5.5,0.9c-1.6-0.4-2.9-1.1-3.8-2.5c-0.9-1.5-1.8-3.1-2.7-4.7c-1.2-2-1-3.9-0.1-5.9
                    c1.6-3.9,4.2-7.1,7-10.1c2-2,2.1-1.8,4.2-0.7c2.4,1.3,5,2.5,7.5,3.7c1.9,0.9,4,1.2,6.1,0.9c1.6-0.2,3.2-0.3,4.7,0.7
                    c2.9,1.8,6,3.3,8.9,5.2c3.1,2.1,6.4,2,9.9,1.4c3.7-0.7,6.3-3.1,8.5-5.9c1-1.3,1.2-3.2,1.6-4.9c0.3-1.5,0.3-3,0.6-4.5
                    c0.4-2.2-0.3-3.9-2.3-5c-1.8-1-3.6-1.9-5.5-2.7c-3.1-1.3-5.9-3.2-8.2-5.7c-3.5-3.7-7.2-7.1-11.4-10.1c-1.3-1-2.5-2.2-3.5-3.6
                    c-2.5-3.4-5.4-6.4-8.8-8.9c-1.5-1.1-3.2-1.7-4.9-2.6c-3.2-1.7-6.6-3.2-9.5-5.3c-4.7-3.4-3.8-2.6-3.3-7.4c0.2-1.7,0.5-3.3,0.8-5
                    c0.5-3.2-0.6-6.1-1.5-9c-0.1-0.3-0.6-0.7-0.9-0.7c-0.4,0-0.8,0.3-1,0.6c-0.4,0.7-0.6,1.4-0.8,2.1c-0.9,2.5-1.8,4.9-2.8,7.4
                    c-0.2,0.5-0.9,0.8-1.3,1.2c-0.3-0.4-0.8-0.8-0.9-1.3c-0.6-2.4-1.6-4.7-1.1-7.3c0.2-1.2,0.7-2.3,1.1-3.4c0.2-0.5,0.4-0.9,0.6-1.4
                    c0.2-0.9-0.3-1.5-1.2-1.2c-0.5,0.1-1,0.4-1.4,0.7c-4.4,3.2-7.6,7.2-9,12.6c-0.5,2-0.7,4-1.2,6c-0.2,0.7-0.6,1.5-1.1,2
                    c-1,1-2.2,1.8-3.4,2.6c-2.5,1.6-4.4,3.7-6,6.1c-1.7,2.5-3.5,5-5.3,7.4c-4.8,6.7-9.7,13.3-14.5,20c-0.6,0.8-0.5,1.2,0.4,1.7
                    c3.7,1.9,7.4,3.8,11.1,5.7c2.6,1.3,5.3,2.4,7.9,3.7c1.6,0.8,3,2.1,3.6,3.9c0.3,0.8,0.5,1.9,0.2,2.7c-1.1,2.5,0.3,4.2,1.7,5.9
                    c4.1,5,9.5,8.5,15.2,11.4c2.9,1.5,5.9,2.9,8.8,4.4c1.5,0.8,2,1.4,1.9,2.8c-0.1,2.1-0.8,3.4-2.4,3.7c-1,0.2-1.2,0.8-1.4,1.6
                    c-0.7,2.8-1.4,5.6-2.4,8.3c-0.5,1.3-1.5,2.5-2.4,3.7c-0.8,1.2-2.1,1.5-3.5,1.5c-0.4,0-0.9,0-1.3-0.1c-3.1-0.4-6.1-0.1-8.8,1.8
                    c-2.3,1.6-4.9,1.7-7.6,1.5c-1.9-0.1-3.8-0.3-5.7-0.3c-3.1,0-4.9,1.6-4.9,4.7c0,4.2-1.2,7.8-3.5,11.2c-0.8,1.1-1.4,2.4-2,3.7
                    c-0.9,1.9-1,3.9-0.2,5.9c1.5,3.7,2.3,7.6,1.2,11.6c-0.3,1-0.7,1.6-1.8,1.5c-1.8-0.1-3.7,0-5.5-0.1c-0.4,0-1-0.6-1.2-1
                    c-0.8-2.1-1.4-4.2-2.2-6.3c-1.3-3.8-3.8-6.4-7.8-7.4c-1.3-0.3-2.6-0.8-3.8-1.4c-1.6-0.7-2.3-2.1-2.2-3.8c0.1-1.8,1-3.2,2.8-3.5
                    c2.7-0.5,5.4-0.8,8.1-0.9c4-0.1,7.2-1.7,9.7-4.8c1.2-1.4,2.1-3.1,2.8-4.8c1.1-2.5,0.6-5-1-7.1c-2-2.6-4.6-4.6-7.4-6.1
                    c-0.7-0.4-1-0.8-1-1.7c-0.1-3.7-1.7-6.7-4.7-8.9c-0.8-0.6-1.9-1.1-2.8-1.5c-1.8-0.9-2-2-1-4.3c0.4-0.9,0.9-1.8,1.2-2.7
                    c0.4-1.3,0-1.9-1.2-2.5c-0.4-0.2-0.7-0.3-1.1-0.5c-4.3-1.6-6.7-1-9.5,2.5c-1.3,1.6-2.5,3.3-3.8,4.9c-1.5,2-3.5,3.1-6,3.1
                    c-1.9,0-3.6,0.6-5,1.8c-1.9,1.5-3.8,3-5.4,4.9c-4.1,4.8-7.1,10.1-8.4,16.4c-0.4,1.9-0.9,3.7-2.2,5.2c-1.6,1.8-2.3,1.8-3.8-0.1
                    c-0.5-0.7-1.1-1.3-1.4-2.1c-0.2-0.5-0.2-1.2,0-1.8c0.7-1.9,1.4-3.8,2.1-5.7c2.4-6,4.8-12.1,7.4-18.1c2.1-4.9,4.3-9.7,6.5-14.5
                    c2.4-5.3,5.5-10.3,9.3-14.8c1.4-1.6,3.2-3,4.9-4.4c2-1.8,4.2-3.4,6-5.3c1.9-1.9,3.9-3.3,6.5-3.8c0.9-0.2,1.8-0.5,2.6-0.8
                    c2.3-0.8,3.4-2.2,3.2-4.6c-0.1-1.7-0.6-3.4-1-5.1c-0.4-1.4-1-2.8-1.4-4.2c-1.3-4-0.6-7.5,2.2-10.6c1.9-2.1,4-4.2,6.1-6.1
                    C79,75,83.5,72.4,88,69.8C91.2,67.8,94.7,66.5,97.9,67.2z"/>
                </g>
                </svg>