<svg viewBox="0 0 210 210" width="200" height="210" xmlns="http://www.w3.org/2000/svg" style="">
  <rect width="200" height="200" fill="#9B14D4" style="fill:rgb(155, 20, 212);stroke:none;color:rgb(251, 251, 254);stroke-width:1px;stroke-linecap:butt;stroke-linejoin:miter;opacity:1;font-family:&quot;Anthropic Sans&quot;, -apple-system, BlinkMacSystemFont, &quot;Segoe UI&quot;, sans-serif;font-size:16px;font-weight:400;text-anchor:start;dominant-baseline:auto"/>

  <!-- Main pad: heart-like shape with indented top -->
  <path d="&#xA;    M100 155&#xA;    C75 155 62 142 62 128&#xA;    C62 112 72 104 85 104&#xA;    C90 104 95 107 100 112&#xA;    C105 107 110 104 115 104&#xA;    C128 104 138 112 138 128&#xA;    C138 142 125 155 100 155Z&#xA;  " fill="white" style="fill:rgb(255, 255, 255);stroke:none;color:rgb(251, 251, 254);stroke-width:1px;stroke-linecap:butt;stroke-linejoin:miter;opacity:1;font-family:&quot;Anthropic Sans&quot;, -apple-system, BlinkMacSystemFont, &quot;Segoe UI&quot;, sans-serif;font-size:16px;font-weight:400;text-anchor:start;dominant-baseline:auto"/>

  <!-- Toe pads: 4 round ovals in an arc -->
  <ellipse cx="68" cy="93" rx="11" ry="13" fill="white" transform="rotate(-20 68 93)" style="fill:rgb(255, 255, 255);stroke:none;color:rgb(251, 251, 254);stroke-width:1px;stroke-linecap:butt;stroke-linejoin:miter;opacity:1;font-family:&quot;Anthropic Sans&quot;, -apple-system, BlinkMacSystemFont, &quot;Segoe UI&quot;, sans-serif;font-size:16px;font-weight:400;text-anchor:start;dominant-baseline:auto"/>
  <ellipse cx="88" cy="82" rx="11" ry="13" fill="white" transform="rotate(-7 88 82)" style="fill:rgb(255, 255, 255);stroke:none;color:rgb(251, 251, 254);stroke-width:1px;stroke-linecap:butt;stroke-linejoin:miter;opacity:1;font-family:&quot;Anthropic Sans&quot;, -apple-system, BlinkMacSystemFont, &quot;Segoe UI&quot;, sans-serif;font-size:16px;font-weight:400;text-anchor:start;dominant-baseline:auto"/>
  <ellipse cx="112" cy="82" rx="11" ry="13" fill="white" transform="rotate(7 112 82)" style="fill:rgb(255, 255, 255);stroke:none;color:rgb(251, 251, 254);stroke-width:1px;stroke-linecap:butt;stroke-linejoin:miter;opacity:1;font-family:&quot;Anthropic Sans&quot;, -apple-system, BlinkMacSystemFont, &quot;Segoe UI&quot;, sans-serif;font-size:16px;font-weight:400;text-anchor:start;dominant-baseline:auto"/>
  <ellipse cx="132" cy="93" rx="11" ry="13" fill="white" transform="rotate(20 132 93)" style="fill:rgb(255, 255, 255);stroke:none;color:rgb(251, 251, 254);stroke-width:1px;stroke-linecap:butt;stroke-linejoin:miter;opacity:1;font-family:&quot;Anthropic Sans&quot;, -apple-system, BlinkMacSystemFont, &quot;Segoe UI&quot;, sans-serif;font-size:16px;font-weight:400;text-anchor:start;dominant-baseline:auto"/>
</svg>