<?xml version="1.0" encoding="utf-8"?>
<!-- Generator: Adobe Illustrator 21.0.0, SVG Export Plug-In . SVG Version: 6.00 Build 0)  -->
<svg version="1.1" id="Layer_1" xmlns="http://www.w3.org/2000/svg" xmlns:xlink="http://www.w3.org/1999/xlink" x="0px" y="0px"
	 viewBox="0 0 550.8 160" style="enable-background:new 0 0 550.8 160;" xml:space="preserve">
<style type="text/css">
	.st0{fill:#9C1B36;}
	.st1{fill:#939598;}
</style>
<g>
	<path class="st0" d="M160.1,80c-0.2,21.9-7.8,40.8-23.2,56.2c-15.9,16-35.4,24-58,23.7c-21.9-0.3-40.7-8.3-56.1-24
		C7.6,120.5-0.1,101.6,0,79.7c0.1-21.7,7.8-40.5,23.1-56C38.9,7.8,58.2-0.1,80.6,0c22.2,0.2,41.1,8.3,56.6,24
		C152.4,39.5,159.9,58.3,160.1,80z M109.5,25.8c-1.9-0.2-3.6,0.3-5.3,0.8c-1.7,0.5-3.3,1.2-4.7,2.3c-1.4,1.1-2.8,2.4-4.2,3.6
		c-2.5,2.1-4.9,4.3-7.3,6.4c-1.3,1.2-2.6,2.3-4,3.5c-2.3,2-4.6,4-6.8,6c-1.5,1.3-2.9,2.6-4.4,3.9c-2.4,2.1-4.7,4.1-7.1,6.2
		c-1.5,1.3-3,2.6-4.5,4c-2.4,2.1-4.7,4.1-7.1,6.2c-1.5,1.3-3,2.6-4.5,4c-2.3,2-4.6,4-6.8,6c-1.5,1.3-2.9,2.6-4.4,3.9
		c-2.3,2-4.6,4-6.9,6c-1.7,1.5-3.3,2.9-5,4.4c-3.1,2.6-5.3,5.8-6.2,9.8c-0.2,1.1-0.7,2.3-0.5,3.5c0.1,0.5,0.1,1,0.1,1.5
		c0.1,0.7,0.1,1.4,0.3,2.2c0.6,2.8,1.7,5.3,3.5,7.5c0.8,1,1.7,1.9,2.5,2.8c2,2.3,4,4.6,6,6.8c1.4,1.6,2.7,3.2,4.1,4.8
		c1.5,1.7,3.1,3.3,5,4.6c2.9,1.9,6,2.8,9.4,2.8c0.9,0,1.9-0.2,2.8-0.4c2.6-0.4,5-1.4,7.1-3c1-0.8,2-1.7,3-2.6
		c2.4-2.1,4.7-4.1,7.1-6.2c1.4-1.2,2.8-2.5,4.2-3.7c2.3-2,4.6-4,6.8-6c1.6-1.4,3.1-2.8,4.7-4.2c2.2-1.9,4.4-3.9,6.7-5.8
		c1.6-1.4,3.2-2.9,4.8-4.3c2.9-2.6,5.8-5.1,8.7-7.6c1.4-1.2,2.8-2.4,4.1-3.6c2.3-2,4.7-4.1,7-6.1c1.6-1.4,3.1-2.8,4.7-4.2
		c2.1-1.8,4.2-3.7,6.3-5.5c1.7-1.5,3.4-2.9,5-4.4c1.1-1,2.2-2.1,3.1-3.4c2.4-3.6,3.5-7.5,2.9-11.9c-0.4-3.1-1.5-5.9-3.4-8.3
		c-1.9-2.4-4-4.6-6-6.9c-1.2-1.4-2.4-2.8-3.6-4.1c-1.9-2.1-3.7-4.2-5.6-6.2C118.1,27.4,114,26,109.5,25.8z"/>
	<path class="st0" d="M459.2,63.9l6.7-38.1c0,0,7.7-0.3,9.2-0.1c0,0,0.1,0,0.1,0.1c0,0,0,0.1,0,0.1l-11.5,65.4L453,91.3l-4.5-46.4
		l-8.2,46.5H431l11.5-65.6l13,0c0,0,3.5,36.8,3.6,38.1C459.1,63.9,459.2,63.9,459.2,63.9z"/>
	<path class="st0" d="M333.8,25.6c0,0,16.4,0,18.7,0.2c2.3,0.2,4.5,0.8,6.4,2.2c1.7,1.2,2.7,2.8,3.1,4.8c0.4,1.8,0.5,3.7,0.3,5.6
		c-0.4,3.3-1,6.5-1.7,9.7c-0.7,3.3-2.1,6.3-4.6,8.7c-0.6,0.5-1.2,1-1.8,1.4c-0.6,0.4-1.2,0.7-1.9,1.1c0.4,0.2,0.7,0.5,1.1,0.7
		c1.8,1.1,2.7,2.9,3.2,4.9c0.2,1,0.4,2.1,0.4,3.2c0,1.2-0.1,2.4-0.3,3.7c-0.4,2.6-0.9,5.1-1.3,7.7c-0.3,1.8-0.7,3.7-1,5.5
		c-0.3,1.8-0.6,3.7-0.2,5.6l0,0.8l-10.5,0.1c0,0-0.5-1.5-0.2-3.7c0.3-1.7,0.5-3.4,0.8-5.1c0.3-2,0.7-4,1-6c0.4-2.1,0.8-4.3,1-6.4
		c0.1-1.3-0.1-2.6-0.9-3.7c-0.6-0.9-1.5-1.3-2.5-1.5c-1.8-0.4-5.6-0.2-5.6-0.2l-4.7,26.5l-10.3,0.1L333.8,25.6z M339,55.2
		c2.1,0,4,0.1,5.9-0.2c1.6-0.3,3-1.1,3.9-2.6c0.8-1.3,1.3-2.8,1.5-4.3c0.4-2.1,0.8-4.2,1.1-6.3c0.2-1.2,0.4-2.4,0.1-3.6
		c-0.3-1.5-1.3-2.9-3.4-2.9c-1.5,0-3.1,0-4.6,0c-0.3,0-0.6,0-1,0.1C341.3,41.9,340.2,48.5,339,55.2z"/>
	<path class="st0" d="M397.5,47.9h-9.8c0,0,0.5-2.9,0.7-4.3c0.3-1.6,0.6-3.2,0.7-4.7c0.1-0.8-0.1-1.7-0.5-2.5
		c-0.5-0.9-1.2-1.5-2.1-1.6c-1.9-0.3-3.7-0.3-5.4,0.9c-0.9,0.6-1.4,1.5-1.9,2.4c-0.5,1.2-0.8,2.5-1,3.7c-0.3,1.9-5.6,31.5-6.1,34.8
		c-0.2,1.2-0.3,2.4,0.1,3.6c0.3,0.9,0.8,1.5,1.6,1.9c1,0.5,2.1,0.7,3.2,0.5c0.6-0.1,1.1-0.2,1.7-0.4c1.8-0.6,2.8-2,3.4-3.7
		c0.4-1.4,2.7-14,2.7-14l-4.6-0.2l1.6-9.4l14.6,0c0,0-3.9,22.2-4.4,23.8c-1,3.6-2.7,6.9-5.6,9.4c-2.3,2-5,3.2-8,3.7
		c-2.2,0.4-4.4,0.3-6.6,0.2c-2.7-0.2-5.2-1.1-7.3-3c-1.3-1.3-2.2-2.9-2.6-4.6c-0.6-2.3-0.7-4.7-0.3-7c0.7-4.1,5.5-32.3,6.3-36.4
		c0.6-3.4,1.8-6.6,3.9-9.4c2.5-3.3,5.8-5.4,9.9-6.2c1.9-0.4,3.8-0.6,5.7-0.4c2.3,0.2,4.6,0.6,6.7,1.8c2.5,1.4,3.9,3.5,4.6,6.2
		c0.6,2.2,0.7,4.5,0.3,6.8C398.5,42.2,397.5,47.9,397.5,47.9z"/>
	<path class="st0" d="M295.9,25.6c3.5,0,6.9,0,10.4,0c-0.1,0.7-0.1,1.2-0.2,1.8c-0.6,3.2-1.2,6.4-1.7,9.6c-0.5,2.9-1,5.7-1.5,8.6
		c-0.4,2.4-0.9,4.7-1.3,7.1c-0.5,2.9-1,5.7-1.5,8.6c-0.4,2.4-0.9,4.7-1.3,7.1c-0.4,2.4-0.8,4.8-1.2,7.2c-0.1,0.8-0.3,1.5-0.4,2.3
		c-0.1,0.9,0,1.8,0.3,2.7c0.5,1.3,1.5,1.9,2.8,2.1c1.1,0.2,2.2,0.2,3.3-0.2c1.6-0.5,2.7-1.6,3.4-3.1c0.6-1.3,0.9-2.7,1.1-4.1
		c0.4-2.5,0.9-5,1.3-7.4c0.3-2,0.7-4,1-6c0.3-1.8,0.6-3.7,1-5.5c0.4-2.1,0.7-4.2,1.1-6.3c0.3-1.8,0.7-3.7,1-5.5
		c0.4-1.9,0.7-3.9,1.1-5.8c0.4-2,0.7-4.1,1.1-6.1c0.3-2,0.7-4,1-6c0.1-0.3,0.2-0.6,0.3-0.9c1.6-0.2,9-0.1,9.9,0.1
		c-0.2,1.5-0.5,2.9-0.8,4.4c-0.4,2.4-0.8,4.9-1.3,7.3c-0.4,2.4-0.9,4.7-1.3,7.1c-0.4,2-0.7,4-1,6c-0.3,1.9-0.7,3.8-1,5.6
		c-0.4,2-0.7,4.1-1.1,6.1c-0.3,1.9-0.7,3.8-1,5.7c-0.3,2-0.7,3.9-1,5.9c-0.5,3.1-1.1,6.2-2.6,9c-2.4,4.9-6.3,8-11.7,9.1
		c-1.9,0.4-3.7,0.5-5.6,0.4c-2.6-0.1-5.2-0.6-7.4-2.2c-2.2-1.5-3.5-3.6-4.1-6.2c-0.2-1-0.4-2.1-0.4-3.2c0-1.3,0.1-2.7,0.3-4
		c0.5-3,1-5.9,1.5-8.9c0.4-2.4,0.9-4.7,1.3-7.1c0.5-2.9,1-5.7,1.5-8.6c0.4-2.4,0.9-4.7,1.3-7.1c0.5-2.9,1-5.7,1.5-8.6
		c0.4-2.4,0.9-4.7,1.3-7.1c0.2-1.1,0.4-2.2,0.5-3.3C295.8,26.1,295.8,25.9,295.9,25.6z"/>
	<polygon class="st1" points="202.7,25.9 212.1,25.9 202,91.3 186.7,91.3 176.6,25.9 186.8,25.9 194.9,78.8 	"/>
	<path class="st0" d="M508.7,47.9c-3.3,0-6.5,0-9.9,0c0.3-1.5,1.4-8,1.4-9.9c-0.1-2.1-1.5-3.3-3.3-3.5c-1-0.1-1.9-0.1-2.8,0.2
		c-2.1,0.5-3.3,2.1-4,4.1c-0.3,0.9-6.1,33.9-6.6,36.2c-0.3,1.3-0.4,2.6-0.4,4c0,1.9,1.4,3.2,3,3.5c1.3,0.2,2.5,0.1,3.7-0.3
		c1.8-0.7,2.9-2,3.4-3.8c0.4-1.4,2.2-11.4,2.2-11.4l9.8-0.1c0,0-1,6.6-1.3,8.6c-0.6,3.3-1.6,6.5-3.4,9.3c-2.6,3.9-6.3,6.2-10.9,7.1
		c-2.2,0.4-4.4,0.3-6.6,0.2c-2.2-0.1-4.3-0.8-6.1-2.1c-2.2-1.6-3.5-3.8-3.9-6.4c-0.5-2.6-0.4-5.2,0.1-7.9c0.4-2,6.8-38.5,8.4-41.5
		c2.6-4.9,6.5-7.9,11.9-8.9c1.7-0.3,3.5-0.5,5.2-0.4c2.2,0.2,4.4,0.5,6.4,1.6c2.1,1.1,3.6,2.8,4.5,5c1,2.5,1.2,5,0.8,7.7
		C509.7,41.7,508.8,47.5,508.7,47.9z"/>
	<polygon class="st0" points="407.9,25.8 436.2,25.7 434.5,35.2 416.8,35.2 413.6,53.1 427.7,53.4 426,62.9 411.9,62.9 408.5,81.9 
		426.3,81.9 424.7,91.4 396.4,91.4 	"/>
	<polygon class="st0" points="525.3,25.7 527.9,55.3 540.9,25.6 550.8,25.6 529.9,70.7 526.3,91.3 515.8,91.3 519.4,70.6 
		514.4,25.8 	"/>
	<path class="st1" d="M269.5,35h10.7v-9.2l-31.7-0.1l0,9.2l10.6,0l0.1,56.2l10.2,0c0,0,0-0.1,0-0.1C269.5,74.4,269.5,35,269.5,35z"
		/>
	<path class="st1" d="M239.1,130.3c-0.7,0.7-1.2,1.2-1.8,1.7c-1.5,1.3-3.3,1.9-5.3,1.8c-4.2-0.3-6.5-2.6-7.6-6.5
		c-0.3-1.1-0.5-2.3-0.5-3.4c0.1-2.7,0.6-5.2,2.4-7.4c1.2-1.4,2.7-2.2,4.5-2.5c2.2-0.3,4.4-0.1,6.2,1.4c0.7,0.5,1.2,1.1,2,1.8
		c0-1,0-1.8,0-2.6c0.7-0.3,1.3-0.2,2-0.1c0,0.3,0.1,0.6,0.1,0.9c0,6,0,12,0,18.1c0,1.8-0.4,3.5-1.6,4.9c-1.3,1.5-3,2.3-5,2.6
		c-0.5,0.1-1.1,0.2-1.6,0.2c-2.2-0.1-4.4-0.2-6.3-1.6c-0.5-0.4-1-0.9-1.5-1.4c0.4-0.6,0.7-1.1,1.1-1.6c0.3,0.3,0.6,0.5,0.8,0.8
		c0.9,1,2.1,1.5,3.4,1.8c1.6,0.4,3.2,0.2,4.7-0.2c1.7-0.5,2.8-1.6,3.5-3.2c0.4-1.1,0.5-2.2,0.4-3.4
		C239.1,131.6,239.1,131,239.1,130.3z M239.1,119.4c-0.6-1.4-1.8-2.2-2.9-2.8c-1.6-0.9-3.4-1-5.1-0.6c-2,0.5-3.4,1.9-4.2,3.8
		c-0.8,1.9-0.9,3.8-0.7,5.7c0.1,1.5,0.7,2.9,1.7,4.1c1.7,2,3.9,2.8,6.6,2.1c1.6-0.4,3-1.3,4.1-2.6c0.3-0.4,0.5-0.8,0.5-1.4
		C239.1,124.9,239.1,122.1,239.1,119.4z"/>
	<path class="st1" d="M203.9,107.1c0.8,0,1.5,0,2.2,0c0,0.3,0.1,0.5,0.1,0.8c0,5.2,0,10.4,0,15.6c0,2.2-0.5,4.3-1.7,6.2
		c-1.3,2.1-3.3,3.2-5.6,3.7c-2.5,0.5-5,0.5-7.4-0.4c-2.3-0.9-4-2.5-4.9-4.8c-0.6-1.6-0.9-3.2-0.9-4.9c0-5,0-10,0-15.1
		c0-0.3,0-0.7,0-1.1c0.8,0,1.4,0,2.2,0c0,0.4,0,0.8,0,1.2c0,5.1,0,10.2,0,15.3c0,1.8,0.5,3.5,1.4,5c0.6,1,1.5,1.7,2.5,2.3
		c2.3,1.2,6.8,1.1,8.9-0.5c1.6-1.2,2.5-2.9,2.9-4.8c0.3-1.2,0.2-2.5,0.2-3.8c0-4.4,0-8.9,0-13.3
		C203.9,108.1,203.9,107.7,203.9,107.1z"/>
	<path class="st1" d="M477.3,114.8c-0.1,0.7-0.2,1.4-0.4,2.1c-0.8,3-2.8,4.7-5.8,5.3c-0.9,0.2-1.9,0.2-2.8,0.2c-1.8,0-3.5,0-5.3,0
		c-0.4,0-0.8,0-1.3,0c-0.1,1.2,0,2.4,0,3.6c0,1.2,0,2.4,0,3.6c0,1.2,0,2.4,0,3.6c-0.7,0-1.3,0-1.9,0c0,0-0.1,0-0.1-0.1
		c0,0-0.1-0.1-0.1-0.1c0-8.5,0-16.9,0-25.4c0-0.1,0-0.3,0.1-0.5c0.3,0,0.6-0.1,0.9-0.1c2.9,0,5.8,0,8.7,0c2.2,0,4.2,0.6,5.8,2.3
		c1.2,1.2,1.9,2.6,2,4.4C477.2,114.1,477.3,114.4,477.3,114.8z M461.8,120.3c0.2,0,0.3,0.1,0.4,0.1c2.5,0,5.1,0.1,7.6,0
		c1.1,0,2.2-0.5,3.2-1.2c2.3-1.8,2.5-5.2,1.2-7.4c-1-1.8-2.7-2.6-4.7-2.6c-2.3-0.1-4.6,0-6.9,0c-0.3,0-0.5,0-0.8,0.1
		C461.8,112.9,461.8,116.6,461.8,120.3z"/>
	<path class="st1" d="M334,111.3c-0.7,0.4-1.2,0.8-1.8,1.2c-0.4-0.4-0.7-0.7-1-1c-1.2-1.3-2.7-2-4.3-2.4c-3.2-0.8-6.1-0.2-8.7,1.7
		c-2.5,1.7-3.8,4.2-4.4,7.1c-0.6,3-0.1,5.8,1.3,8.4c1.5,2.7,3.7,4.5,6.7,5.2c2.7,0.7,5.3,0.5,7.7-1c1-0.6,2-1.3,2.7-2.4
		c0.6,0.4,1.2,0.7,1.9,1.1c-1.3,1.6-2.8,2.9-4.7,3.7c-2,0.9-4.1,1.1-6.3,0.9c-2-0.2-3.9-0.8-5.7-1.9c-1.9-1.1-3.3-2.7-4.4-4.5
		c-0.8-1.4-1.3-2.8-1.5-4.4c-0.1-0.9-0.2-1.8-0.2-2.7c-0.1-3.2,0.9-6.1,2.9-8.6c1.8-2.3,4.1-3.8,6.9-4.4c1.2-0.3,2.4-0.5,3.6-0.4
		c3.3,0.1,6.3,1.2,8.6,3.7C333.5,110.6,333.7,110.9,334,111.3z"/>
	<path class="st1" d="M388.4,124.5c-5.3,0-10.4,0-15.6,0c-0.4,0.7-0.1,1.4,0.1,2c0.6,2.3,1.9,4,4.1,5c1.1,0.5,2.2,0.6,3.4,0.6
		c2.1-0.1,3.8-0.8,5.4-2.2c0.1-0.1,0.3-0.1,0.5-0.3c0.3,0.4,0.6,0.7,0.9,1.1c-0.8,1-1.8,1.6-2.8,2.1c-2.4,1.1-4.9,1.3-7.4,0.6
		c-2.9-0.8-4.9-2.7-6-5.6c-1.3-3.7-0.9-7.2,1.4-10.4c1.6-2.2,3.8-3.4,6.6-3.4c0.8,0,1.7-0.1,2.5,0.1c2.7,0.6,4.7,2.2,5.8,4.7
		c0.7,1.5,0.9,3.2,1.1,4.9C388.5,123.9,388.4,124.1,388.4,124.5z M372.7,122.9c0.5,0,0.8,0,1.2,0c3.5,0,7.1,0,10.6,0
		c0.4,0,0.8,0,1.3,0c0.2,0,0.5-0.2,0.7-0.3c-0.5-5.1-4-7.4-7.5-7.1C374.9,115.9,372.6,119.6,372.7,122.9z"/>
	<path class="st1" d="M498.4,124.5c-5.3,0-10.4,0-15.6,0c-0.3,1.1,0.1,2,0.4,2.8c1.1,2.7,3,4.3,5.9,4.6c2.4,0.3,4.5-0.2,6.4-1.8
		c0.2-0.2,0.5-0.3,0.9-0.6c0.3,0.4,0.6,0.8,0.9,1.2c-0.8,1.1-1.9,1.7-3,2.2c-3,1.3-6,1.3-8.9-0.1c-2-1-3.4-2.6-4.2-4.7
		c-0.6-1.5-0.9-3.1-0.8-4.7c0.3-3.8,1.8-6.9,5.4-8.7c1.2-0.6,2.4-0.8,3.8-0.8c1.3,0,2.6,0.2,3.8,0.7c1.9,0.9,3.2,2.4,4.1,4.3
		c0.7,1.5,0.9,3.1,1.1,4.6C498.5,123.8,498.4,124.1,498.4,124.5z M496.4,122.7c-0.4-5.6-4.7-7.7-7.9-7.1c-3.6,0.7-6.5,4.4-5.7,7.2
		c4.3,0,8.7,0,13.1,0C496.1,122.9,496.2,122.8,496.4,122.7z"/>
	<path class="st1" d="M264.4,124.6c-5.3,0-10.5,0-15.8,0c0.2,1,0.4,1.8,0.7,2.6c1,2.8,3,4.4,6,4.8c2.1,0.2,4.1-0.2,5.8-1.4
		c0.4-0.3,0.8-0.7,1.3-1.1c0.3,0.4,0.6,0.8,1,1.3c-0.9,0.9-1.8,1.7-2.9,2.1c-2.6,1.1-5.2,1.2-7.8,0.3c-2.6-0.9-4.4-2.7-5.4-5.3
		c-1-2.6-1-5.2-0.2-7.7c1.1-3.2,3.4-5.5,6.8-6.1c2.1-0.4,4.3-0.2,6.2,1c1,0.6,1.9,1.4,2.6,2.4C264,119.5,264.7,121.8,264.4,124.6z
		 M262.3,122.8c0.4-2.7-1.7-6.9-6.3-7.2c-3.9-0.2-7.2,2.9-7.2,7.2C249.5,123,260.6,123.1,262.3,122.8z"/>
	<path class="st1" d="M352.6,133.3c-0.8,0-1.3,0-2,0c0-0.7-0.1-1.3-0.1-1.9c-0.9,0.5-1.7,1.2-2.5,1.6c-2.2,1.1-4.4,1.1-6.7,0.3
		c-2-0.8-3.2-2.3-3.7-4.5c-0.6-2.4,0.5-5.3,2.8-6.6c0.9-0.5,1.9-0.9,2.9-0.9c1.1,0,2.2-0.1,3.3,0.2c1.1,0.3,2.1,0.8,3,1.6
		c0.2,0.2,0.4,0.3,0.7,0.6c0.1-0.3,0.2-0.5,0.2-0.7c0-1,0-1.9,0-2.9c0-1.9-1.2-3.8-3.6-4.3c-1.7-0.4-3.3-0.1-4.8,0.6
		c-0.7,0.3-1.3,0.9-1.9,1.3c-0.2,0.2-0.4,0.4-0.7,0.7c-0.6-0.3-0.9-0.7-1.2-1.3c1.7-1.9,3.8-3,6.4-3.1c1.2,0,2.4-0.1,3.5,0.2
		c2.2,0.7,3.8,2,4.1,4.4c0.1,0.7,0.2,1.4,0.2,2.2c0,3.8,0,7.5,0,11.3C352.6,132.4,352.6,132.8,352.6,133.3z M350.5,125.4
		c-0.9-1-1.6-1.5-2.6-2c-0.9-0.4-1.7-0.6-2.7-0.6c-0.7,0-1.5-0.1-2.2,0.1c-1.8,0.6-3.2,1.7-3.5,3.8c0,0.3-0.1,0.5-0.2,0.7
		c0.1,0.3,0.2,0.6,0.2,0.8c0.1,1.8,2.3,3.7,4.3,3.8c0.5,0,1.1,0,1.6,0c2-0.2,3.7-0.9,4.9-2.5C350.5,128.2,350.5,126.9,350.5,125.4z"
		/>
	<path class="st1" d="M413.4,123.8c-0.2-2.3,0.4-4.4,1.7-6.3c1.6-2.3,3.8-3.6,6.7-3.6c1.4,0,2.8,0,4.1,0.6c2,0.9,3.4,2.2,4.4,4.1
		c0.9,1.7,1.3,3.5,1.2,5.4c-0.1,2.8-1,5.4-3.1,7.4c-1.5,1.4-3.2,2.1-5.1,2.2c-1,0.1-2,0.1-3.1-0.2c-3.1-0.8-5.1-2.7-6.2-5.6
		c-0.3-0.7-0.5-1.4-0.6-2.1C413.3,125.2,413.4,124.5,413.4,123.8z M429.3,123.8c0.1-1.6-0.3-3.1-1-4.5c-1.6-3.1-4.5-3.9-7.4-3.4
		c-2.3,0.5-3.8,2-4.7,4.2c-0.8,2-0.9,4.1-0.4,6.2c0.7,3.2,3.5,6,7,5.7c2.5-0.2,4.8-1.6,5.8-4.1C429,126.5,429.4,125.2,429.3,123.8z"
		/>
	<path class="st1" d="M271.8,118.9c0,4.8,0,9.5,0,14.3c-0.6,0.2-1.2,0.1-1.8,0.1c0,0-0.1-0.1-0.1-0.1c0,0-0.1-0.1-0.1-0.1
		c0-5.9,0-11.8,0-17.7c0-0.3,0-0.5,0-0.9c0.6,0,1.2,0,1.9,0c0.3,0.7,0,1.6,0.2,2.5c0.3-0.3,0.6-0.4,0.8-0.6c1.7-1.6,3.7-2.5,6.1-2.5
		c1.1,0,2.2,0.1,3.2,0.6c1.4,0.7,2.1,1.8,2.4,3.2c0.2,0.8,0.2,1.7,0.3,2.6c0,3.9,0,7.7,0,11.6c0,0.4,0,0.8,0,1.2
		c-0.7,0.3-1.3,0.1-2,0.1c0-0.4-0.1-0.8-0.1-1.2c0-3.9,0-7.7,0-11.6c0-0.6-0.1-1.2-0.2-1.8c-0.4-1.8-1.7-2.8-3.5-2.9
		c-1.9-0.1-3.7,0.3-5.3,1.4C273,117.7,272.4,118.3,271.8,118.9z"/>
	<path class="st1" d="M515.9,120.6c1.1,0.9,2.4,1.3,3.7,1.6c1.5,0.4,3,0.7,4.5,1.4c1.4,0.7,2.6,1.6,3,3.2c0.5,2-0.2,4.4-2,5.6
		c-1.3,0.9-2.7,1.3-4.2,1.3c-1.6,0.1-3.2,0-4.7-0.6c-1.3-0.5-2.3-1.2-3.3-2.3c0.3-0.5,0.7-0.9,1-1.4c0.5,0.4,1,0.8,1.4,1.1
		c2.2,1.6,4.6,2,7.3,1.2c0.8-0.3,1.5-0.7,2-1.4c0.9-1.4,1-3.8-1.4-4.7c-1-0.4-2-0.6-3-1c-1.5-0.5-3.1-0.7-4.5-1.5
		c-1.2-0.7-2.1-1.6-2.4-3.1c-0.2-1,0-1.9,0.4-2.7c1-2.1,2.8-3.1,5-3.3c1.4-0.1,2.8-0.2,4.1,0.2c1.5,0.5,2.9,1.1,4,2.5
		c-0.3,0.4-0.7,0.9-1.1,1.3c-0.5-0.4-0.9-0.9-1.5-1.3c-1.9-1.1-3.9-1.5-6-0.9c-0.9,0.2-1.7,0.6-2.3,1.4
		C515.2,118.5,515.1,119.2,515.9,120.6z"/>
	<path class="st1" d="M406.7,114.4c1.4,0,2.6,0,3.8,0c0,0.5,0,1,0,1.6c-1.2,0-2.4,0-3.5,0c-0.4,0.5-0.3,0.9-0.3,1.3
		c0,4.9,0,9.7,0,14.6c0,0.4,0,0.8,0,1.3c-0.7,0-1.3,0-1.9,0c-0.2-0.9-0.1-1.9-0.1-2.8c0-1,0-1.9,0-2.9c0-1,0-1.9,0-2.9
		c0-0.9,0-1.8,0-2.8c0-1,0-1.9,0-2.9c0-0.9,0-1.9,0-3c-1.1,0-2.1,0-3.1,0c0-0.6,0-1,0-1.6c1,0,2,0,3,0c0.3-1,0.1-1.8,0.1-2.7
		c0.1-1.2,0.4-2.2,1.1-3.2c0.8-1,1.9-1.6,3.2-1.8c1.4-0.2,2.6,0.1,3.8,0.8c0.2,0.1,0.3,0.3,0.6,0.5c-0.3,0.4-0.6,0.9-0.9,1.2
		c-0.8-0.3-1.5-0.6-2.2-0.7c-1.1-0.2-2.2,0.1-2.8,1.1c-0.4,0.6-0.6,1.2-0.7,1.9C406.6,112.5,406.7,113.4,406.7,114.4z"/>
	<path class="st1" d="M506.1,114.4c1.4,0,2.5,0,3.7,0c0.3,0.6,0.2,1,0.2,1.6c-1.2,0.2-2.5,0-3.7,0.1c-0.1,0.3-0.2,0.6-0.2,0.8
		c0,4.1,0,8.3,0,12.4c0,1,0.3,1.9,1.2,2.5c1.1,0.3,2-0.1,3-0.7c0.2,0.5,0.5,1,0.7,1.4c-1.4,1.5-4.1,1.4-5.3,0.7
		c-0.7-0.4-1.2-1.1-1.4-1.9c-0.2-0.7-0.2-1.5-0.2-2.3c0-3.9,0-7.8,0-11.7c0-0.4,0-0.8,0-1.3c-1,0-1.9,0-2.8,0
		c-0.3-0.6-0.2-1-0.1-1.6c0.9,0,1.8,0,2.8,0c0.3-0.9,0.1-1.8,0.2-2.7c0-0.8,0-1.7,0-2.6c0.7,0,1.3,0,1.9,0c0.2,0.8,0.1,1.6,0.1,2.5
		C506.2,112.5,506.1,113.4,506.1,114.4z"/>
	<path class="st1" d="M293.5,114.4c1.3,0,2.5,0,3.7,0c0.3,0.6,0.2,1,0.1,1.6c-1.2,0-2.4,0.1-3.7,0.1c-0.1,0.4-0.1,0.6-0.1,0.9
		c0,4.1,0,8.2,0,12.3c0,1.1,0.3,2,1.3,2.6c1.1,0.3,2-0.1,2.9-0.7c0.3,0.5,0.5,0.9,0.7,1.3c-1.4,1.6-3.9,1.7-5.8,0.4
		c-0.9-1-1.1-2.3-1.1-3.5c0-3.9,0-7.9,0-11.8c0-0.4,0-0.8,0-1.3c-1-0.3-1.9,0-2.9-0.2c0-0.5,0-0.9,0-1.5c0.9,0,1.8,0,2.8,0
		c0.3-0.9,0.1-1.8,0.2-2.7c0-0.8,0-1.7,0-2.6c0.7,0,1.3,0,2,0C293.5,110.9,293.4,112.5,293.5,114.4z"/>
	<path class="st1" d="M212.7,114.5c0.7,0,1.3,0,2,0c0,1,0,1.9,0,3c1.8-2,3.6-3.6,6.4-3.5c0,0.7,0,1.3,0,1.9c-0.2,0-0.3,0.1-0.5,0.1
		c-2.2,0-3.9,1.1-5.4,2.7c-0.4,0.5-0.5,1-0.5,1.6c0,3.9,0,7.7,0,11.6c0,0.4,0,0.8-0.1,1.3c-0.7,0-1.2,0-1.8,0c0,0,0,0-0.1-0.1
		c0,0-0.1-0.1-0.1-0.1c0-6,0-12,0-18C212.7,114.9,212.7,114.7,212.7,114.5z"/>
	<path class="st1" d="M438.9,133.3c-0.7,0-1.3,0-1.8,0c-0.1-0.1-0.1-0.1-0.1-0.1c0,0-0.1-0.1-0.1-0.1c0-6,0-12,0-18
		c0-0.1,0-0.3,0.1-0.5c0.6,0,1.2,0,1.9,0c0,0.9,0,1.9,0,2.9c1.8-1.9,3.6-3.4,6.2-3.5c0,0.7,0,1.3,0,2c-2.6,0.1-4.5,1.2-6.2,3.3
		C438.9,123.8,438.9,128.5,438.9,133.3z"/>
	<path class="st1" d="M359.1,114.5c0.6,0,1.1,0,1.6,0c0.4,0.9-0.1,2,0.3,3c1.6-2,3.5-3.4,6.1-3.5c0.3,0.8,0.3,0.8,0.1,2
		c-0.4,0-0.9,0-1.3,0.1c-1.9,0.4-3.4,1.4-4.6,2.8c-0.4,0.5-0.4,1-0.4,1.6c0,3.8,0,7.7,0,11.5c0,0.4,0,0.7,0,1.2c-0.6,0-1.2,0-1.7,0
		c0,0-0.1-0.1-0.1-0.1c0,0-0.1-0.1-0.1-0.1c0-6,0-12,0-17.9C359.1,114.9,359.1,114.8,359.1,114.5z"/>
	<path class="st0" d="M136.8,58.8c0,4.1-1.8,7.6-5.1,10.5c-1.5,1.3-3,2.6-4.4,3.8c-2.9,2.5-5.8,5.1-8.7,7.6
		c-1.5,1.3-2.9,2.6-4.4,3.9c-2.3,2-4.6,4-6.9,6c-1.5,1.3-3,2.6-4.5,4c-2.3,2-4.7,4.1-7,6.1c-1.4,1.2-2.8,2.4-4.1,3.6
		c-2.4,2.1-4.8,4.2-7.2,6.3c-1.5,1.3-3,2.7-4.6,4c-2.2,1.9-4.4,3.9-6.7,5.8c-1.4,1.2-2.8,2.5-4.2,3.7c-2.4,2.1-4.7,4.1-7.1,6.2
		c-0.7,0.6-1.4,1.2-2.1,1.8c-1.9,1.8-4.2,2.8-6.8,3.3c-4.6,0.8-8.7-0.5-12-3.7c-2-1.9-3.7-4.1-5.5-6.1c-1.3-1.4-2.5-2.9-3.8-4.3
		c-1.9-2.2-3.9-4.4-5.8-6.7c-1.9-2.3-2.7-5.1-2.7-8.1c0-2.7,0.6-5.2,2-7.5c0.8-1.4,2-2.4,3.1-3.5c1.7-1.5,3.3-2.9,5-4.4
		c2.3-2,4.6-4,6.8-6c1.5-1.3,3-2.7,4.6-4c2.3-2,4.7-4.1,7-6.1c1.4-1.2,2.8-2.4,4.1-3.6c1.8-1.6,3.6-3.1,5.4-4.7
		c1.4-1.3,2.9-2.5,4.3-3.8c2.4-2.1,4.8-4.2,7.2-6.3c1.4-1.2,2.7-2.4,4.1-3.6c2.4-2.1,4.8-4.2,7.2-6.4c1.6-1.4,3.1-2.8,4.7-4.2
		c2.2-1.9,4.3-3.8,6.5-5.6c1.4-1.3,2.9-2.5,4.3-3.8c2.1-2,4.6-3.2,7.3-3.8c0.4-0.1,0.8-0.1,1.3-0.1c0.6,0,1.3-0.1,1.9-0.1
		c0.2,0,0.5-0.1,0.7,0c2.3,0.5,4.7,1,6.6,2.5c1.2,1,2.3,2,3.3,3.2c1.6,1.8,3.2,3.6,4.8,5.4c1.8,2.1,3.7,4.2,5.5,6.3
		c1,1.2,2,2.3,3,3.5c1.5,1.7,2.3,3.8,2.7,6C136.8,56.8,136.8,57.6,136.8,58.8z M105.6,83.1c0.1-1.5-0.4-2.7-1.4-3.7
		c-2.3-2.7-4.6-5.4-7-8.1c-2.1-2.4-4.2-4.7-6.3-7.1c-0.8-0.9-1.5-1.8-2.3-2.6c-0.9-1-1.7-2.2-2.9-2.9c-1.3-0.8-2.7-1.2-4.2-0.8
		C80,58.1,78.9,59,77.9,60c-2.2,1.9-4.4,3.9-6.6,5.8c-2.4,2.1-4.8,4.2-7.2,6.3c-1.5,1.3-3,2.5-4.4,3.8c-1.1,0.9-2.1,1.9-3.1,2.9
		c-1.1,1.1-1.7,2.4-1.7,4c0,1.5,0.6,2.7,1.6,3.8c1.2,1.5,2.5,2.9,3.8,4.3c2,2.3,4,4.6,6,6.8c1.4,1.6,2.8,3.2,4.2,4.8
		c1.2,1.4,2.4,2.8,3.7,4.1c1.5,1.5,3.4,1.9,5.5,1.2c1-0.3,1.8-0.9,2.5-1.6c1.5-1.3,2.9-2.6,4.4-3.9c2.5-2.2,5-4.4,7.5-6.6
		c1.5-1.3,2.9-2.6,4.4-3.9c1.9-1.6,3.7-3.3,5.6-4.9C105.1,86,105.7,84.7,105.6,83.1z"/>
	<path class="st0" d="M90,93.2c0,0.1-0.1,0.2-0.1,0.3c-0.4,1.8-1.8,2.7-3.6,2.2c-0.8-0.2-1.6-0.5-2.4-0.9c-2-0.9-4-0.8-6,0
		c-0.9,0.3-1.8,0.5-2.7,0.8c-2.1,0.6-4.1-1.3-3.6-3.6c0.6-2.3,1.6-4.4,3.1-6.2c0.9-1.1,2-2,3.4-2.5c2.2-0.8,4.4-0.6,6.3,0.9
		c2.4,2,4.2,4.5,5.3,7.3c0.1,0.2,0.1,0.5,0.2,0.8C89.8,92.7,89.9,92.9,90,93.2z"/>
	<path class="st0" d="M80.8,74.6c0.1-1.3,0.5-2.8,1.6-4c0.9-1,2-1.6,3.4-1.2c1.3,0.4,2,1.4,2.3,2.7c0.4,1.9,0.2,3.7-0.9,5.4
		c-0.4,0.6-1,1.2-1.6,1.6c-1.4,0.9-2.9,0.5-3.8-0.8C81.1,77.4,80.8,76.1,80.8,74.6z"/>
	<path class="st0" d="M71.9,73.6c0-0.9,0.2-1.7,0.5-2.5c0.8-1.6,2.6-2.6,4.6-1c2,1.6,2.9,4.7,2,7.2c-0.3,0.8-0.7,1.5-1.6,1.9
		c-0.8,0.4-1.5,0.4-2.3,0.1c-1.6-0.7-2.4-2-2.9-3.6C72.1,75,72,74.3,71.9,73.6z"/>
	<path class="st0" d="M93.9,80.8c0,2.1-0.8,3.9-2.6,5c-0.3,0.2-0.8,0.4-1.2,0.5c-1.4,0.3-2.7-0.4-3.2-1.8c-0.7-2.1-0.1-4,1.2-5.7
		c0.5-0.6,1.1-1,1.8-1.4c1.9-1,3.8,0.4,4,2.3C94,80.1,93.9,80.5,93.9,80.8z"/>
	<path class="st0" d="M66.5,81c0-0.7,0-1.4,0.4-2.1c1-1.5,2.9-1.4,3.9-0.8c2.2,1.4,3.3,3.6,2.9,6.3c-0.2,1.7-1.7,3-3.7,2.2
		c-2.1-0.9-3.2-2.5-3.5-4.7C66.4,81.6,66.5,81.3,66.5,81z"/>
	<polygon class="st1" points="245,35 245,25.9 227.2,25.9 227.2,25.9 217,25.9 217,91.4 220,91.4 227.2,91.4 245,91.4 245,82.2 
		227.2,82.2 227.2,62.7 241.4,62.7 241.4,53.5 227.2,53.5 227.2,35 	"/>
</g>
</svg>
